# xmcd
#
# Track frame offsets:
#	150
#	14495
#	30020
#	48387
#	63037
#	77437
#	89080
#	105270
#	120235
#	135687
#	157807
#	169055
#	182385
#	197002
#	211805
#	224137
#	235115
#	249735
#	262917
#	277160
#	291985
#
# Disc length: 4067 seconds
#
# Revision: 0
# Processed by: cddbd v1.5.2PL0 Copyright (c) Steve Scherf et al.
# Submitted via: dBpowerAMP V4.0
#
DISCID=1a0fe115
DTITLE=Various Artist - MCA Radio Golden Oldies Volume 02
DYEAR=1900
DGENRE=
TTITLE0=Lee Greenwood - God Bless The USA
TTITLE1=Bellamy Brothers - I Need More Of You
TTITLE2=Steve Wariner - Some Fools Never Learn
TTITLE3=George Strait - Does Ft. Worth Ever Cross Your Mind
TTITLE4=Don Williams - Listen To The Radio
TTITLE5=George Strait - The Fireman
TTITLE6=Bellamy Brothers - Forget About Me
TTITLE7=Lee Greenwood - Dixie Road
TTITLE8=Oak Ridge Boys - Little Things
TTITLE9=Tanya Tucker - Texas (When I Die)
TTITLE10=Buddy Holly - That'll Be The Day
TTITLE11=Kenny Rogers - Ruby
TTITLE12=Lee Greenwood and Barbara Mandrell - To Me
TTITLE13=Bellamy Brothers - Let Your Love Flow
TTITLE14=Patsy Cline - Crazy
TTITLE15=George Strait - Unwound
TTITLE16=Don Williams - Tulsa Time
TTITLE17=Oak Ridge Boys - Y'all Come Back Saloon
TTITLE18=Jimmy Buffett - Come Monday
TTITLE19=Conway Twitty - I'd Love To Lay You Down
TTITLE20=Merle Haggard - The Way I Am
EXTD=
EXTT0=
EXTT1=
EXTT2=
EXTT3=
EXTT4=
EXTT5=
EXTT6=
EXTT7=
EXTT8=
EXTT9=
EXTT10=
EXTT11=
EXTT12=
EXTT13=
EXTT14=
EXTT15=
EXTT16=
EXTT17=
EXTT18=
EXTT19=
EXTT20=
PLAYORDER=
